<?xml version="1.0" encoding="utf-8"?>
<!-- Generator: Adobe Illustrator 24.3.0, SVG Export Plug-In . SVG Version: 6.00 Build 0)  -->
<svg version="1.1" id="Layer_1" xmlns="http://www.w3.org/2000/svg" xmlns:xlink="http://www.w3.org/1999/xlink" x="0px" y="0px"
	 viewBox="0 0 50 50" style="enable-background:new 0 0 50 50;" xml:space="preserve">
<style type="text/css">
	.st0{fill:#1D7CD3;}
</style>
<g>
	<path class="st0" d="M25,34.9c-2.5,0-4.6-2.1-4.6-4.6s2.1-4.6,4.6-4.6c2.5,0,4.6,2.1,4.6,4.6S27.5,34.9,25,34.9z M25,27.7
		c-1.4,0-2.6,1.2-2.6,2.6c0,1.4,1.2,2.6,2.6,2.6s2.6-1.2,2.6-2.6S26.4,27.7,25,27.7z"/>
	<path class="st0" d="M30.9,24.4c-0.7,0-1.2-0.7-0.9-1.4c0.4-1,1.9-0.7,1.9,0.4C31.9,23.9,31.4,24.4,30.9,24.4z"/>
	<path class="st0" d="M46.9,3.2c-1.4,0-2.6,0.9-3,2.2H29.2c-0.6-1.7-2.3-2.9-4.2-2.9c-1.9,0-3.6,1.2-4.2,2.9H6.1
		c-0.4-1.2-1.6-2.2-3-2.2C1.4,3.2,0,4.6,0,6.4c0,1.7,1.4,3.1,3.1,3.1c1.4,0,2.6-0.9,3-2.2h5.6C11,7.8,10.4,8.2,9.9,8.8
		c-2.2,2.1-3.5,5-3.6,8c-1.5,0.4-2.5,1.8-2.5,3.3c0,1.9,1.6,3.5,3.5,3.5s3.5-1.6,3.5-3.5c0-1.6-1.1-2.9-2.5-3.3
		c0.3-5.2,4.7-9.5,10-9.5h2.3c0.2,2.3,2.1,4.1,4.5,4.1s4.3-1.8,4.5-4.1h2.3c5.3,0,9.7,4.2,10,9.5c-1.4,0.4-2.5,1.8-2.5,3.3
		c0,1.9,1.6,3.5,3.5,3.5c1.9,0,3.5-1.6,3.5-3.5c0-1.6-1.1-2.9-2.5-3.3c-0.1-3-1.4-5.9-3.6-8c-0.6-0.5-1.2-1-1.8-1.4h5.6
		c0.4,1.2,1.6,2.2,3,2.2c1.7,0,3.1-1.4,3.1-3.1C50,4.6,48.6,3.2,46.9,3.2z M3.1,7.5C2.5,7.5,2,7,2,6.4c0-0.6,0.5-1.2,1.2-1.2
		c0.6,0,1.2,0.5,1.2,1.2C4.3,7,3.8,7.5,3.1,7.5z M8.8,20.2c0,0.8-0.7,1.5-1.5,1.5c-0.8,0-1.5-0.7-1.5-1.5s0.7-1.5,1.5-1.5
		C8.1,18.6,8.8,19.3,8.8,20.2z M25,9.5c-1.4,0-2.5-1.1-2.5-2.5c0-1.4,1.1-2.5,2.5-2.5c1.4,0,2.5,1.1,2.5,2.5S26.4,9.5,25,9.5z
		 M44.3,20.2c0,0.8-0.7,1.5-1.5,1.5c-0.8,0-1.5-0.7-1.5-1.5s0.7-1.5,1.5-1.5C43.6,18.6,44.3,19.3,44.3,20.2z M46.9,7.5
		c-0.6,0-1.2-0.5-1.2-1.2c0-0.6,0.5-1.2,1.2-1.2c0.6,0,1.2,0.5,1.2,1.2C48,7,47.5,7.5,46.9,7.5z"/>
	<path class="st0" d="M33.6,26.3c-0.3-0.5-0.9-0.6-1.3-0.4c-0.5,0.3-0.6,0.9-0.4,1.3l1.2,2.1c0.6,1,0.6,2.2,0,3.2L30.3,38H19.7
		l-2.8-5.4c-0.5-1-0.5-2.2,0-3.2l7.1-13v6c0,0.5,0.4,1,1,1c0.5,0,1-0.4,1-1v-6l2,3.6c0.3,0.5,0.9,0.6,1.3,0.4
		c0.5-0.3,0.6-0.9,0.4-1.3l-2.7-5c-0.2-0.3-0.5-0.5-0.9-0.5h-2.1c-0.4,0-0.7,0.2-0.9,0.5l-7.8,14.4c-0.9,1.6-0.9,3.5,0,5.1l2.3,4.5
		h-0.3c-0.5,0-1,0.4-1,1c0,0.5,0.4,1,1,1h0.6l-1.6,6.4c-0.1,0.3,0,0.6,0.2,0.8c0.2,0.2,0.5,0.4,0.8,0.4h15.6c0.3,0,0.6-0.1,0.8-0.4
		c0.2-0.2,0.3-0.5,0.2-0.8l-1.6-6.4h0.6c0.5,0,1-0.4,1-1c0-0.5-0.4-1-1-1h-0.3l2.3-4.5c0.8-1.6,0.8-3.5,0-5.1L33.6,26.3z M31.5,45.6
		H18.5l1.4-5.6h10.2L31.5,45.6z"/>
</g>
</svg>
