<?xml version="1.0" encoding="utf-8"?>
<!-- Generator: Adobe Illustrator 24.3.0, SVG Export Plug-In . SVG Version: 6.00 Build 0)  -->
<svg version="1.1" id="Layer_1" xmlns="http://www.w3.org/2000/svg" xmlns:xlink="http://www.w3.org/1999/xlink" x="0px" y="0px"
	 viewBox="0 0 50 50" style="enable-background:new 0 0 50 50;" xml:space="preserve">
<style type="text/css">
	.st0{fill:#B2A31A;}
</style>
<g>
	<path class="st0" d="M0.1,6c0-0.1,0.1-0.2,0.1-0.3c0.3-1.5,1.2-2.3,2.7-2.3c0.9,0,1.7,0,2.6,0c0.5,0,0.8,0.3,0.8,0.7
		c0,0.4-0.3,0.7-0.8,0.7c-0.9,0-1.9,0-2.8,0C2,4.8,1.5,5.2,1.5,5.9c0,2.1,0,4.1,0,6.2c0,0.1,0,0.2,0,0.3c15.7,0,31.3,0,47,0
		c0-0.2,0-0.4,0-0.5c0-1.9,0-3.7,0-5.6c0-1-0.5-1.4-1.4-1.4c-12.5,0-24.9,0-37.4,0c-0.2,0-0.5,0-0.7-0.1C8.8,4.5,8.6,4.3,8.5,4.1
		C8.4,3.7,8.7,3.5,9,3.4c0.2,0,0.3,0,0.5,0c12.5,0,24.9,0,37.4,0c1,0,2,0.3,2.5,1.2c0.3,0.5,0.5,1.1,0.5,1.7c0,9.7,0,19.5,0,29.2
		c0,0.2,0,0.4-0.1,0.5c-0.2,0.2-0.4,0.4-0.6,0.4c-0.2,0-0.5-0.2-0.6-0.4c-0.1-0.2-0.1-0.5-0.1-0.8c0-6.9,0-13.9,0-20.8
		c0-0.2,0-0.4,0-0.7c-15.7,0-31.3,0-47,0c0,0.2,0,0.3,0,0.5c0,9.9,0,19.7,0,29.6c0,0.9,0.5,1.4,1.4,1.4c14.7,0,29.5,0,44.2,0
		c0.9,0,1.4-0.5,1.4-1.4c0-1.4,0-2.7,0-4.1c0-0.1,0-0.3,0-0.4c0.1-0.4,0.2-0.7,0.7-0.8c0.5,0,0.7,0.3,0.7,0.7c0,1.7,0,3.4-0.1,5.1
		c-0.1,1.2-1.3,2.1-2.7,2.1c-0.1,0-0.1,0-0.2,0c-14.6,0-29.1,0-43.7,0c-1.5,0-2.6-0.7-2.9-1.9c-0.1-0.2-0.1-0.5-0.2-0.7
		C0.1,31.4,0.1,18.7,0.1,6z"/>
	<path class="st0" d="M25.1,15.6c3.7,0,7.5,0,11.2,0c1,0,1.7,0.5,1.8,1.5c0.1,1.5,0,3,0,4.4c0,0.7-0.8,1.2-1.5,1.2
		c-1.9,0-3.7,0-5.6,0c-0.4,0-0.7-0.3-0.7-0.6c0-0.4,0.3-0.6,0.7-0.6c0.1,0,0.2,0,0.3,0c1.6,0,3.2,0,4.8,0c0.6,0,0.7,0,0.7-0.7
		c0-1.1,0-2.2,0-3.3c0-0.5-0.2-0.6-0.6-0.6c-7.4,0-14.8,0-22.2,0c-0.4,0-0.6,0.1-0.6,0.6c0,1.1,0,2.2,0,3.3c0,0.6,0,0.7,0.7,0.7
		c4.3,0,8.6,0,13,0c0.2,0,0.3,0,0.5,0c0.3,0.1,0.6,0.3,0.6,0.6c0,0.4-0.2,0.6-0.6,0.7c-0.1,0-0.3,0-0.4,0c-4.4,0-8.8,0-13.2,0
		c-1,0-1.9-0.6-1.9-1.9c0-1.1,0-2.2,0-3.4c0-1.3,0.8-1.9,1.9-1.9C17.6,15.6,21.4,15.6,25.1,15.6z"/>
	<path class="st0" d="M34.5,10.8c-3.4,0-6.8,0-10.2,0c-1.1,0-2-0.8-2.1-1.8c-0.1-1.1,0.5-2.1,1.6-2.4c0.2,0,0.4,0,0.5,0
		c6.8,0,13.6,0,20.4,0c1.3,0,2.2,0.9,2.2,2.1c0,1.2-0.9,2.1-2.2,2.1C41.3,10.8,37.9,10.8,34.5,10.8z M34.5,9.5c3.3,0,6.6,0,9.8,0
		c0.8,0,1.3-0.3,1.2-0.8c0-0.5-0.4-0.8-1.2-0.8c-6.6,0-13.2,0-19.8,0c-0.1,0-0.3,0-0.4,0c-0.4,0.1-0.8,0.4-0.7,0.8
		c0,0.4,0.3,0.7,0.7,0.8c0.2,0,0.4,0,0.5,0C28,9.5,31.2,9.5,34.5,9.5z"/>
	<path class="st0" d="M29.8,29.4c0,2.4-1.8,4.7-4.7,4.7c-2.9,0-4.7-2.4-4.7-4.8c0-2.4,1.9-4.7,4.8-4.7C28,24.6,29.8,27.1,29.8,29.4z
		 M25,32.8c1.6,0.1,3.5-1.2,3.5-3.4c0-1.9-1.5-3.3-3.4-3.4c-1.6-0.1-3.5,1.3-3.5,3.4C21.6,31.2,23.1,32.8,25,32.8z"/>
	<path class="st0" d="M43.3,29.4c0,2.3-1.8,4.7-4.7,4.7c-2.9,0-4.7-2.4-4.7-4.7c0-2.3,1.8-4.7,4.7-4.7C41.5,24.6,43.3,27,43.3,29.4z
		 M38.6,25.9c-1.5-0.1-3.4,1.2-3.4,3.4c0,2.2,1.9,3.5,3.4,3.4c1.9-0.1,3.5-1.5,3.4-3.4C42,27.1,40.1,25.8,38.6,25.9z"/>
	<path class="st0" d="M16.3,29.4c-0.1,0.4-0.1,0.9-0.2,1.3c-0.1,0.4-0.5,0.6-0.8,0.5c-0.4-0.1-0.5-0.5-0.4-0.9c0.4-1.4,0-2.5-1-3.5
		c-1-1-2.6-1.2-3.9-0.5c-1.2,0.6-2,2.2-1.8,3.4c0.3,1.6,1.4,2.8,2.8,3c0.6,0.1,1.2,0,1.8-0.2c0.5-0.1,0.9,0,1,0.4
		c0.1,0.4-0.1,0.7-0.6,0.9c-2.6,1-5.6-0.7-6.2-3.4c-0.7-2.9,1.4-5.8,4.6-5.9C14.5,24.6,16.3,27.1,16.3,29.4z"/>
	<path class="st0" d="M11.5,38.6c1.2,0,2.3,0,3.5,0c0.2,0,0.4,0,0.5,0.1c0.2,0.2,0.5,0.4,0.5,0.6c0,0.2-0.3,0.4-0.5,0.6
		C15.4,40,15.1,40,14.9,40c-2.3,0-4.6,0-6.9,0c-0.7,0-1.1-0.2-1.1-0.7c0-0.5,0.4-0.7,1.1-0.7C9.2,38.6,10.3,38.6,11.5,38.6z"/>
	<path class="st0" d="M25,38.6c1.2,0,2.3,0,3.5,0c0.2,0,0.5,0,0.6,0.1c0.2,0.1,0.4,0.4,0.4,0.6c0,0.2-0.2,0.4-0.4,0.6
		C29,40,28.7,40,28.5,40c-2.3,0-4.6,0-7,0c-0.1,0-0.2,0-0.2,0c-0.5,0-0.8-0.3-0.8-0.7c0-0.4,0.3-0.7,0.8-0.7
		C22.6,38.6,23.8,38.6,25,38.6z"/>
	<path class="st0" d="M38.6,38.6c1.2,0,2.3,0,3.5,0c0.2,0,0.5,0,0.7,0.1c0.2,0.1,0.3,0.4,0.3,0.6c0,0.2-0.2,0.4-0.4,0.6
		C42.5,40,42.3,40,42.1,40c-2.3,0-4.6,0-7,0c-0.1,0-0.2,0-0.2,0c-0.5,0-0.8-0.3-0.8-0.7c0-0.4,0.3-0.7,0.8-0.7
		C36.1,38.6,37.3,38.6,38.6,38.6z"/>
	<path class="st0" d="M11.5,41.6c1.2,0,2.3,0,3.5,0c0.2,0,0.5,0,0.6,0.1c0.2,0.1,0.4,0.4,0.4,0.6c0,0.2-0.2,0.4-0.4,0.6
		c-0.1,0.1-0.4,0.1-0.6,0.1c-2.4,0-4.7,0-7.1,0c-0.2,0-0.4,0-0.5-0.1C7.2,42.7,7,42.5,7,42.3c0-0.2,0.3-0.5,0.5-0.6
		c0.1-0.1,0.3-0.1,0.5-0.1C9.1,41.6,10.3,41.6,11.5,41.6z"/>
	<path class="st0" d="M25,41.6c1.2,0,2.3,0,3.5,0c0.2,0,0.5,0,0.7,0.1c0.2,0.1,0.3,0.4,0.3,0.6c0,0.2-0.2,0.4-0.4,0.6
		c-0.2,0.1-0.4,0.1-0.7,0.1c-2.3,0-4.6,0-7,0c-0.1,0-0.2,0-0.2,0c-0.5,0-0.8-0.3-0.8-0.7c0-0.4,0.3-0.7,0.8-0.7
		C22.6,41.5,23.8,41.6,25,41.6z"/>
	<path class="st0" d="M38.6,42.9c-1.1,0-2.2,0-3.4,0c-0.1,0-0.2,0-0.3,0c-0.5,0-0.8-0.3-0.8-0.7c0-0.4,0.3-0.7,0.9-0.7
		c1.6,0,3.1,0,4.7,0c0.9,0,1.8,0,2.6,0c0.4,0,0.7,0.1,0.9,0.4c0.2,0.3,0,0.7-0.4,0.8c-0.2,0.1-0.4,0.1-0.7,0.1
		C40.9,42.9,39.7,42.9,38.6,42.9z"/>
	<path class="st0" d="M13.6,8.7c0,1.2-0.9,2.1-2.1,2.1c-1.2,0-2.1-0.9-2.1-2.1c0-1.2,1-2.1,2.1-2.1C12.7,6.6,13.6,7.5,13.6,8.7z
		 M11.5,9.5c0.4,0,0.8-0.4,0.8-0.8c0-0.4-0.4-0.8-0.8-0.8c-0.4,0-0.8,0.4-0.8,0.8C10.7,9.1,11.1,9.5,11.5,9.5z"/>
	<path class="st0" d="M17.7,10.8c-1.2,0-2.1-0.9-2.1-2.1c0-1.1,1-2.1,2.1-2.1c1.2,0,2.2,1,2.2,2.1C19.8,9.8,18.8,10.8,17.7,10.8z
		 M16.9,8.7c0,0.5,0.3,0.8,0.8,0.8c0.4,0,0.8-0.3,0.8-0.8c0-0.4-0.3-0.8-0.8-0.8C17.3,7.9,16.9,8.2,16.9,8.7z"/>
	<path class="st0" d="M3,8.7C3,7.5,4,6.6,5.1,6.6c1.2,0,2.1,0.9,2.1,2.1c0,1.2-0.9,2.1-2.1,2.1C3.9,10.8,3,9.9,3,8.7z M5.9,8.7
		c0-0.4-0.4-0.8-0.8-0.8c-0.4,0-0.8,0.4-0.8,0.8c0,0.4,0.4,0.8,0.8,0.8C5.6,9.5,6,9.1,5.9,8.7z"/>
	<path class="st0" d="M12,37.1c-1,0-2,0-3,0c-0.2,0-0.5,0-0.6-0.1c-0.2-0.1-0.4-0.4-0.4-0.5c0-0.2,0.2-0.5,0.4-0.6
		c0.1-0.1,0.4-0.1,0.6-0.1c2,0,4.1,0,6.1,0c0.1,0,0.3,0,0.4,0c0.3,0.1,0.6,0.3,0.6,0.7c0,0.4-0.2,0.6-0.6,0.7c-0.3,0-0.6,0-1,0
		C13.6,37.1,12.8,37.1,12,37.1z"/>
	<path class="st0" d="M25.5,37.1c-1,0-2,0-3,0c-0.2,0-0.4,0-0.6-0.1c-0.2-0.1-0.4-0.4-0.4-0.6c0-0.2,0.2-0.5,0.4-0.6
		c0.1-0.1,0.4-0.1,0.6-0.1c2,0,4,0,6,0c0.1,0,0.3,0,0.4,0c0.4,0.1,0.6,0.3,0.6,0.7c0,0.4-0.3,0.6-0.6,0.6c-0.6,0-1.2,0-1.8,0
		C26.6,37.1,26.1,37.1,25.5,37.1z"/>
	<path class="st0" d="M39.1,37.1c-1,0-2,0-3,0c-0.2,0-0.5,0-0.6-0.1c-0.2-0.1-0.4-0.4-0.4-0.5c0-0.2,0.2-0.5,0.4-0.6
		c0.1-0.1,0.4-0.1,0.6-0.1c2,0,4.1,0,6.1,0c0.2,0,0.4,0,0.5,0.1c0.2,0.2,0.5,0.4,0.4,0.6c0,0.2-0.3,0.5-0.5,0.6
		c-0.1,0.1-0.4,0.1-0.6,0.1C41,37.1,40,37.1,39.1,37.1z"/>
</g>
</svg>
