<?xml version="1.0" encoding="utf-8"?>
<!-- Generator: Adobe Illustrator 24.3.0, SVG Export Plug-In . SVG Version: 6.00 Build 0)  -->
<svg version="1.1" id="Layer_1" xmlns="http://www.w3.org/2000/svg" xmlns:xlink="http://www.w3.org/1999/xlink" x="0px" y="0px"
	 viewBox="0 0 30 50" style="enable-background:new 0 0 30 50;" xml:space="preserve">
<style type="text/css">
	.st0{fill:#409BB8;}
</style>
<path class="st0" d="M12.8,45.2c-0.4,0-0.7,0.3-0.7,0.7c0,0.4,0.3,0.7,0.7,0.7h4.4c0.4,0,0.7-0.3,0.7-0.7c0-0.4-0.3-0.7-0.7-0.7
	H12.8z"/>
<g>
	<path class="st0" d="M-10.7,42.5c0-6.3,0-12.7,0-19c0.2-0.4,0.5-0.6,1-0.5c0.5,0.2,0.5,0.5,0.5,1c0,0.1,0,0.2,0,0.4
		c0,5.5,0,11,0,16.5c0,0.2,0,0.4,0,0.6c2.2,0,4.4,0,6.6,0c0-13.3,0-26.5,0-39.8c-2.2,0-4.4,0-6.6,0c0,0.2,0,0.4,0,0.6
		c0,5.9,0,11.8,0,17.6c0,0.4,0,0.8-0.5,1c-0.5,0.2-0.8-0.1-1-0.4c0-6.6,0-13.3,0-19.9c0.3-0.4,0.6-0.5,1.1-0.5c14.8,0,29.5,0,44.3,0
		c0.9,0,1.1,0.2,1.1,1.2c0,6.2,0,12.4,0,18.5c0,0.8-0.2,1.1-0.7,1.2c-0.5,0-0.8-0.3-0.8-1.2c0-5.9,0-11.7,0-17.6c0-0.2,0-0.4,0-0.6
		c-2.2,0-4.4,0-6.6,0c0,9.1,0,18.1,0,27.3c2.3-0.5,4.4-0.3,6.6,0.6c0-0.3,0-0.5,0-0.7c0-1.7,0-3.3,0-5c0-0.5,0.3-0.8,0.7-0.8
		c0.5,0,0.8,0.3,0.8,0.8c0,0.1,0,0.3,0,0.4c0,1.9,0,3.8,0,5.7c0,0.3,0.1,0.5,0.4,0.7c1.9,1.3,3.3,3.1,4,5.4c0.3,0.8,0.4,1.6,0.6,2.4
		c0,0.7,0,1.3,0,2c0,0.1-0.1,0.2-0.1,0.3c-0.6,4.7-4.3,8.5-9,9.2c-4.8,0.7-9.4-1.9-11.4-6.3c-0.2-0.4-0.4-0.5-0.8-0.5
		c-9.7,0-19.4,0-29,0C-10,42.9-10.4,42.9-10.7,42.5z M-1.1,5.9c0,10.4,0,20.8,0,31.2c0.2,0,0.3,0,0.4,0c6.6,0,13.2,0,19.9,0
		c0.3,0,0.5-0.1,0.5-0.4c0.9-3.3,2.9-5.7,6-7.2c0.4-0.2,0.4-0.3,0.4-0.7c0-7.5,0-14.9,0-22.4c0-0.2,0-0.3,0-0.5
		C17.1,5.9,8,5.9-1.1,5.9z M20.9,39.3c0,5,4.1,9.2,9.1,9.2c5,0,9.2-4.1,9.2-9.1c0-5.1-4.1-9.2-9.2-9.2C25,30.1,20.9,34.2,20.9,39.3z
		 M-1.1,4.3c9.1,0,18.2,0,27.2,0c0-0.9,0-1.8,0-2.7c-9.1,0-18.2,0-27.2,0C-1.1,2.5-1.1,3.4-1.1,4.3z M-1.1,41.4c6.9,0,13.8,0,20.7,0
		c-0.1-0.9-0.1-1.8-0.2-2.7c-6.8,0-13.6,0-20.5,0C-1.1,39.6-1.1,40.5-1.1,41.4z"/>
	<path class="st0" d="M31,4.7c0.2,0,0.4,0,0.6,0c0.4,0,0.6,0.3,0.6,0.6c0,0.4-0.1,0.7-0.5,0.8c-0.5,0.1-1,0.1-1.5,0
		c-0.4,0-0.6-0.4-0.6-0.8c0-0.4,0.3-0.6,0.7-0.7C30.6,4.7,30.8,4.7,31,4.7C31,4.7,31,4.7,31,4.7z"/>
	<path class="st0" d="M31,15.4c-0.2,0-0.4,0-0.6,0c-0.4,0-0.7-0.3-0.7-0.7c0-0.4,0.2-0.7,0.6-0.8c0.5-0.1,1-0.1,1.4,0
		c0.4,0.1,0.6,0.4,0.6,0.8c0,0.4-0.3,0.6-0.7,0.7C31.4,15.4,31.2,15.4,31,15.4z"/>
	<path class="st0" d="M31,18.5c0.2,0,0.4,0,0.6,0c0.4,0,0.6,0.3,0.7,0.7c0,0.4-0.2,0.7-0.6,0.8c-0.5,0.1-1,0.1-1.4,0
		c-0.4,0-0.6-0.3-0.6-0.8c0-0.4,0.3-0.7,0.7-0.7C30.6,18.5,30.8,18.5,31,18.5z"/>
	<path class="st0" d="M31,9.3c0.2,0,0.4,0,0.6,0c0.4,0.1,0.7,0.3,0.6,0.8c0,0.4-0.2,0.7-0.6,0.7c-0.4,0-0.9,0-1.3,0
		c-0.4,0-0.7-0.3-0.7-0.7c0-0.4,0.3-0.7,0.7-0.8C30.6,9.3,30.8,9.3,31,9.3C31,9.3,31,9.3,31,9.3z"/>
	<path class="st0" d="M31,23.1c0.2,0,0.5,0,0.7,0c0.4,0,0.6,0.3,0.6,0.7c0,0.4-0.1,0.7-0.5,0.8c-0.5,0.1-1.1,0.1-1.6,0
		c-0.4,0-0.6-0.4-0.5-0.7c0-0.4,0.3-0.6,0.7-0.7C30.6,23.1,30.8,23.1,31,23.1C31,23.1,31,23.1,31,23.1z"/>
	<path class="st0" d="M-5.9,4.7c0.2,0,0.4,0,0.6,0c0.4,0,0.6,0.3,0.7,0.7c0,0.4-0.1,0.7-0.5,0.8c-0.5,0.1-1,0.1-1.5,0
		c-0.4,0-0.6-0.4-0.5-0.8c0-0.4,0.3-0.6,0.7-0.7C-6.3,4.7-6.1,4.7-5.9,4.7z"/>
	<path class="st0" d="M-5.9,29.1c-0.2,0-0.4,0-0.6,0c-0.4,0-0.6-0.3-0.7-0.7c0-0.4,0.1-0.7,0.5-0.8c0.5-0.1,1-0.1,1.5,0
		c0.4,0,0.6,0.4,0.5,0.8c0,0.4-0.3,0.6-0.7,0.7C-5.5,29.2-5.7,29.1-5.9,29.1z"/>
	<path class="st0" d="M-5.9,36.9c0.2,0,0.4,0,0.6,0c0.4,0,0.6,0.3,0.7,0.7c0,0.4-0.1,0.7-0.5,0.8c-0.5,0.1-1,0.1-1.5,0
		c-0.4,0-0.6-0.4-0.5-0.8c0-0.4,0.3-0.6,0.7-0.7C-6.3,36.8-6.1,36.9-5.9,36.9z"/>
	<path class="st0" d="M-5.9,15.4c-0.2,0-0.4,0-0.5,0c-0.4,0-0.7-0.3-0.7-0.7c0-0.4,0.2-0.8,0.7-0.8c0.4,0,0.9,0,1.3,0
		c0.4,0.1,0.7,0.3,0.6,0.8c0,0.4-0.3,0.7-0.7,0.7C-5.5,15.4-5.7,15.4-5.9,15.4z"/>
	<path class="st0" d="M-5.9,18.5c0.2,0,0.4,0,0.5,0c0.4,0,0.7,0.3,0.7,0.7c0,0.4-0.2,0.8-0.7,0.8c-0.4,0-0.9,0-1.3,0
		c-0.4-0.1-0.6-0.3-0.6-0.8c0-0.4,0.3-0.7,0.7-0.7C-6.3,18.5-6.1,18.5-5.9,18.5z"/>
	<path class="st0" d="M-5.9,23.1c0.2,0,0.4,0,0.6,0c0.4,0,0.6,0.3,0.7,0.7c0,0.4-0.2,0.7-0.6,0.8c-0.5,0.1-1,0.1-1.4,0
		c-0.4,0-0.6-0.4-0.6-0.8c0-0.4,0.3-0.6,0.7-0.7C-6.3,23.1-6.1,23.1-5.9,23.1C-5.9,23.1-5.9,23.1-5.9,23.1z"/>
	<path class="st0" d="M-5.9,9.3c0.2,0,0.5,0,0.7,0c0.4,0.1,0.6,0.4,0.6,0.8c0,0.4-0.2,0.6-0.6,0.7c-0.5,0-0.9,0-1.4,0
		c-0.4,0-0.6-0.3-0.6-0.7c0-0.4,0.2-0.7,0.6-0.7C-6.3,9.3-6.1,9.3-5.9,9.3C-5.9,9.3-5.9,9.3-5.9,9.3z"/>
	<path class="st0" d="M-5.9,33.7c-0.2,0-0.5,0-0.7,0C-7,33.7-7.2,33.4-7.2,33c0-0.4,0.3-0.7,0.6-0.7c0.4,0,0.9,0,1.3,0
		c0.4,0,0.7,0.3,0.7,0.7c0,0.4-0.3,0.7-0.7,0.8C-5.5,33.8-5.7,33.7-5.9,33.7C-5.9,33.7-5.9,33.7-5.9,33.7z"/>
	<path class="st0" d="M12.5,30.8c-2.4,0-4.7,0-7.1,0c-1.5,0-2.3-0.9-2.3-2.3c0-4.7,0-9.3,0-14c0-1.5,0.9-2.3,2.4-2.3
		c4.7,0,9.4,0,14.1,0c1.5,0,2.4,0.9,2.4,2.4c0,4.7,0,9.3,0,14c0,1.5-0.9,2.3-2.3,2.3C17.2,30.8,14.9,30.8,12.5,30.8z M12.5,29.3
		c2.3,0,4.7,0,7,0c0.7,0,0.9-0.2,0.9-0.9c0-4.6,0-9.2,0-13.8c0-0.7-0.2-0.9-0.9-0.9c-4.7,0-9.3,0-14,0c-0.7,0-0.9,0.2-0.9,0.9
		c0,4.6,0,9.2,0,13.9c0,0.7,0.2,0.9,0.9,0.9C7.8,29.3,10.2,29.3,12.5,29.3z"/>
	<path class="st0" d="M30.1,38.3c0.9-1.6,1.8-3.2,2.7-4.7c0.4-0.7,0.8-0.9,1.3-0.6c0.4,0.3,0.5,0.7,0.1,1.4c-1,1.7-1.9,3.4-2.9,5
		c-0.2,0.4-0.2,0.6,0,0.9c0.2,0.3,0.3,0.6,0.5,0.9c0.6-0.7,1.2-1.1,2.1-1.1c1.3,0,2.4,0.8,2.6,2.1c0.3,1.2-0.4,2.5-1.5,3
		c-1.2,0.5-2.5,0.2-3.2-0.9c-0.5-0.8-1-1.7-1.5-2.5c-0.1-0.1-0.1-0.2-0.2-0.3c-0.5,0.9-1,1.8-1.5,2.6c-0.8,1.2-2.2,1.7-3.4,1.1
		c-1-0.5-1.5-1.3-1.5-2.4c0-1.1,0.6-2,1.6-2.4c1-0.4,2-0.2,2.8,0.5c0.1,0.1,0.1,0.1,0.2,0.2c0.1,0.1,0.1,0.1,0.2,0.2
		c0.2-0.4,0.5-0.8,0.7-1.2c0.1-0.1,0-0.4-0.1-0.5c-1-1.8-2.1-3.6-3.1-5.4c-0.1-0.2-0.2-0.6-0.1-0.8c0-0.2,0.4-0.4,0.5-0.4
		c0.3,0,0.6,0.2,0.7,0.4c0.4,0.6,0.7,1.2,1,1.8C28.8,36.1,29.4,37.1,30.1,38.3z M26.2,43.8c0.6,0,1.1-0.5,1.1-1.1
		c0-0.6-0.5-1.2-1.1-1.1c-0.6,0-1.1,0.5-1.1,1.1C25.1,43.3,25.6,43.8,26.2,43.8z M33.9,43.8c0.6,0,1.1-0.5,1.1-1.1
		c0-0.6-0.5-1.1-1.1-1.1c-0.6,0-1.1,0.5-1.1,1.1C32.8,43.3,33.3,43.8,33.9,43.8z"/>
	<path class="st0" d="M8.8,21.5c0-1.5,0-3,0-4.6c0-0.9,0.6-1.2,1.3-0.7c2.6,1.5,5.2,3,7.8,4.6c0.8,0.5,0.8,1.1,0,1.6
		c-2.6,1.5-5.2,3-7.7,4.5C9.3,27.3,8.8,27,8.8,26C8.8,24.5,8.8,23,8.8,21.5z M16.2,21.5c-2-1.2-3.9-2.3-5.9-3.5c0,2.3,0,4.6,0,7
		C12.3,23.8,14.2,22.7,16.2,21.5z"/>
</g>
</svg>
