<?xml version="1.0" encoding="utf-8"?>
<!-- Generator: Adobe Illustrator 24.3.0, SVG Export Plug-In . SVG Version: 6.00 Build 0)  -->
<svg version="1.1" id="Layer_1" xmlns="http://www.w3.org/2000/svg" xmlns:xlink="http://www.w3.org/1999/xlink" x="0px" y="0px"
	 viewBox="0 0 50 44" style="enable-background:new 0 0 50 44;" xml:space="preserve">
<style type="text/css">
	.st0{fill:#8549AA;}
</style>
<g>
	<path class="st0" d="M7.2,23.8c0,4.8,0,9.5,0,14.2c6.2,0,12.3,0,18.5,0c0-0.2,0-0.3,0-0.5c0-2,0-4.1,0-6.1c0-0.1,0-0.2,0-0.4
		c0-0.4,0.3-0.7,0.7-0.7c0.4,0,0.7,0.3,0.7,0.7c0,0.3,0,0.6,0,0.9c0,1.8,0,3.7,0,5.5c0,0.2,0,0.3,0,0.5c0.5,0,0.9,0,1.3,0
		c0.6,0,0.8,0.3,0.8,0.8c0,0.6,0,1.2,0,1.8c-0.3,1.8-1.7,3.1-3.6,3.1c-6.1,0-12.2,0-18.4,0c-0.2,0-0.5,0-0.7-0.1
		c-1.7-0.3-2.9-1.7-2.9-3.4c0-0.4,0-0.9,0-1.3c0-0.6,0.3-0.8,0.9-0.9c0.4,0,0.8,0,1.3,0c0-0.2,0-0.4,0-0.5c0-4.7,0-9.4,0-14.1
		c0-0.8,0.2-1,1-1c2.1,0,4.1,0,6.2,0c0.4,0,0.7,0.1,0.8,0.5c0.2,0.5-0.2,0.9-0.7,0.9c-1.1,0-2.2,0-3.2,0C9,23.8,8.1,23.8,7.2,23.8z
		 M8.6,42.3c0.1-0.6-0.2-1.4,0.7-1.4c0.9,0,0.7,0.8,0.8,1.4c4.3,0,8.5,0,12.8,0c0.1-1.1,0.2-1.4,0.7-1.4c1,0,0.7,0.8,0.8,1.4
		c3,0.4,3.8-1.2,3.5-2.8c-7.6,0-15.1,0-22.7,0c0,0.3,0,0.6,0,0.8c0.1,1,0.9,1.9,1.9,2C7.5,42.3,8.1,42.3,8.6,42.3z"/>
	<path class="st0" d="M25,17.8c-3,2.5-5.9,4.9-8.9,7.4c0.2,0.4,0.4,0.8,0.7,1.2c0.3,0.6,0.7,1.2,1,1.8c0.3,0.6,0.3,1-0.1,1.2
		c-0.4,0.2-0.8,0-1.1-0.5c-0.5-0.9-1.1-1.9-1.6-2.8c-0.9,0.5-1.8,1-2.6,1.6c-0.6,0.4-0.7,1.1-0.4,1.8c0.5,0.8,0.9,1.7,1.4,2.5
		c0.4,0.6,1.1,0.8,1.8,0.5c0,0,0.1,0,0.1,0c2.9-2,6.3-2.9,9.5-4.1c1.7-0.7,3.3-1.3,5.1-1.9c-0.1-0.2-0.2-0.3-0.2-0.4
		c-0.9-1.6-1.9-3.3-2.8-4.9c-0.3-0.5-0.1-1,0.3-1.1c0.4-0.1,0.7,0,0.9,0.5c0.9,1.5,1.8,3.1,2.7,4.6c0.2,0.4,0.5,0.8,0.7,1.2
		c0.4,0.6,0.2,1-0.5,1.3c-2.9,1.1-5.8,2.2-8.8,3.3c-0.6,0.2-1.1,0.4-1.7,0.6c0.4,0.8,0.9,1.5,1.3,2.3c0.6,1.1,0.1,2.5-1,3
		c-1,0.4-2.1,0-2.7-0.9c-0.5-0.8-0.9-1.6-1.3-2.3c-0.7,0.2-1.4,0.5-2.1,0.6c-0.8,0.1-1.4-0.3-2-0.8c-0.3,0.1-0.5,0.3-0.8,0.4
		c-1.1,0.5-2.3,0.2-2.9-0.8c-0.6-1-0.2-2.2,0.8-2.9c0.1,0,0.1-0.1,0.2-0.1c0.4-0.1,0.5-0.4,0.4-0.8c-0.1-1,0.3-1.9,1.1-2.6
		c0.1,0,0.1-0.1,0.2-0.1c3.1-1.5,5.6-3.9,8.2-6c1.6-1.3,3.1-2.6,4.7-3.9c0.6-0.5,1-0.4,1.3,0.2c0.2,0.3,0.4,0.7,0.6,1
		c0.2,0.4,0.1,0.8-0.2,1c-0.4,0.2-0.8,0.1-1-0.3C25.2,18.1,25.1,17.9,25,17.8z M19.1,31.7c-0.4,0.3-0.8,0.5-1.2,0.7
		c0.5,0.9,1,1.7,1.5,2.5c0.2,0.3,0.6,0.4,0.9,0.2c0.3-0.2,0.5-0.6,0.3-0.9C20,33.4,19.6,32.6,19.1,31.7z M11.7,31.8
		c-0.2-0.4-0.5-0.8-0.7-1.2c-0.9,0.5-1.2,0.8-0.9,1.3C10.4,32.4,10.9,32.3,11.7,31.8z"/>
	<path class="st0" d="M39.9,1c1.4,0,2.8,0,4.1,0c1.4,0,2.3,0.9,2.3,2.2c0,2.8,0,5.5,0,8.3c0,1.3-0.9,2.2-2.2,2.2c-2.8,0-5.6,0-8.4,0
		c-1.3,0-2.2-0.9-2.2-2.2c0-1.3,0-2.7,0-4c0-0.6,0.3-0.9,0.7-0.9C34.7,6.7,35,7,35,7.6c0,1.3,0,2.6,0,3.9c0,0.7,0.2,0.9,0.9,0.9
		c2.7,0,5.4,0,8.1,0c0.7,0,0.9-0.2,0.9-0.9c0-2.7,0-5.4,0-8.1c0-0.7-0.2-0.9-0.9-0.9c-2.7,0-5.4,0-8.1,0c-0.7,0-0.9,0.2-0.9,0.9
		c0,0.4,0,0.8,0,1.2c0,0.5-0.3,0.8-0.7,0.8c-0.4,0-0.7-0.3-0.7-0.8c0-0.5,0-0.9,0-1.4c0-1.2,0.9-2.1,2.1-2.1C37.1,1,38.5,1,39.9,1z"
		/>
	<path class="st0" d="M33.5,29.5c0-1.4,0-2.8,0-4.1c0-1.4,0.9-2.3,2.3-2.3c2.7,0,5.5,0,8.2,0c1.4,0,2.3,0.9,2.3,2.3c0,1.3,0,2.6,0,4
		c0,0.6-0.3,0.9-0.7,0.9c-0.4,0-0.7-0.3-0.7-0.9c0-1.3,0-2.6,0-3.9c0-0.6-0.3-0.9-0.9-0.9c-2.7,0-5.5,0-8.2,0
		c-0.6,0-0.9,0.2-0.9,0.9c0,2.7,0,5.5,0,8.2c0,0.6,0.2,0.9,0.9,0.9c2.7,0,5.5,0,8.2,0c0.6,0,0.9-0.2,0.9-0.9c0-0.4,0-0.8,0-1.2
		c0-0.5,0.3-0.8,0.7-0.8c0.4,0,0.7,0.3,0.7,0.7c0,0.5,0,1,0,1.5c-0.1,1.1-0.9,2-2,2c-2.9,0-5.8,0-8.8,0c-1.1,0-2-1-2-2.1
		C33.5,32.3,33.5,30.9,33.5,29.5z"/>
	<path class="st0" d="M13.6,13.9c0,1.8,0,3.6,0,5.4c0,0.7-0.2,0.9-0.9,0.9c-2.7,0-5.4,0-8.1,0c-0.7,0-0.9-0.2-0.9-0.9
		c0-3.6,0-7.3,0-10.9c0-0.7,0.2-0.9,0.9-0.9c2.7,0,5.4,0,8.1,0c0.7,0,0.9,0.2,0.9,0.9C13.6,10.2,13.6,12,13.6,13.9z M12.2,8.9
		c-2.4,0-4.7,0-7.1,0c0,3.3,0,6.6,0,9.9c2.4,0,4.7,0,7.1,0C12.2,15.5,12.2,12.2,12.2,8.9z"/>
	<path class="st0" d="M15,6.7c0-3.5,2.9-6.4,6.4-6.4c3.5,0,6.4,2.9,6.4,6.5c0,3.5-2.9,6.4-6.5,6.3C17.9,13.1,15,10.2,15,6.7z
		 M26.4,6.7c0-2.7-2.2-5-5-5c-2.8,0-5,2.2-5,5c0,2.7,2.2,4.9,5,5C24.2,11.7,26.4,9.5,26.4,6.7z"/>
	<path class="st0" d="M42.8,29.5c0,1.6-1.3,2.9-2.8,2.9c-1.6,0-2.8-1.3-2.8-2.8c0-1.6,1.3-2.9,2.8-2.9
		C41.5,26.6,42.8,27.9,42.8,29.5z M39.9,28c-0.8,0-1.4,0.6-1.4,1.4c0,0.8,0.7,1.4,1.4,1.4c0.8,0,1.4-0.7,1.4-1.4
		C41.4,28.7,40.7,28,39.9,28z"/>
	<path class="st0" d="M39.9,6.7c1.1,0.1,1.4,0.2,1.4,0.7c0,0.5-0.3,0.7-1.4,0.8c0,0.7,0,1.3,0,2c0,0.4-0.2,0.7-0.6,0.8
		c-0.4,0.1-0.8-0.2-0.8-0.7c0-0.7,0-1.4,0-2.1c-0.6-0.1-1.4,0.2-1.4-0.8c0-0.9,0.8-0.6,1.4-0.7c0-0.3,0-0.5,0-0.8
		c0-1.1,0.9-2,2.1-2.1c0.5,0,0.9,0,1.4,0c0.5,0,0.8,0.3,0.8,0.7c0,0.4-0.3,0.7-0.8,0.7c-0.4,0-0.7,0-1.1,0c-0.7,0-1,0.2-1,1
		C39.9,6.4,39.9,6.5,39.9,6.7z"/>
	<path class="st0" d="M32.9,21.6c-0.5,0-0.8-0.3-0.8-0.6c0-0.4,0.2-0.7,0.6-0.8c1.1-0.2,2.3-0.5,3.4-0.7c0.5-0.1,0.9,0.1,1,0.5
		c0.1,0.4-0.2,0.8-0.7,0.9c-1.1,0.2-2.2,0.5-3.3,0.7C33,21.6,32.9,21.6,32.9,21.6z"/>
	<path class="st0" d="M27.8,15.3c0.1-0.3,0.2-0.4,0.3-0.5c0.7-0.9,1.4-1.8,2-2.7c0.3-0.4,0.7-0.5,1-0.2c0.3,0.3,0.4,0.7,0.1,1.1
		c-0.7,0.9-1.4,1.8-2,2.7c-0.2,0.3-0.5,0.5-0.8,0.3C28.1,15.8,27.9,15.5,27.8,15.3z"/>
	<path class="st0" d="M33.6,15.2c0.2,0.2,0.4,0.3,0.6,0.6c0.2,0.3,0,0.6-0.3,0.8c-0.9,0.7-1.8,1.4-2.8,2.1c-0.4,0.3-0.8,0.2-1.1-0.1
		c-0.2-0.3-0.2-0.7,0.2-1c0.6-0.5,1.2-0.9,1.8-1.4c0.3-0.2,0.6-0.5,0.9-0.7C33.2,15.3,33.4,15.3,33.6,15.2z"/>
	<path class="st0" d="M8.6,14.5c-0.4,0-0.9,0-1.3,0c-0.5,0-0.8-0.3-0.8-0.7c0-0.4,0.3-0.7,0.8-0.7c0.9,0,1.8,0,2.7,0
		c0.5,0,0.8,0.3,0.8,0.7c0,0.4-0.3,0.7-0.8,0.7C9.5,14.5,9.1,14.5,8.6,14.5z"/>
	<path class="st0" d="M8.6,17.4c-0.4,0-0.9,0-1.3,0c-0.5,0-0.8-0.3-0.8-0.7c0-0.4,0.3-0.7,0.8-0.7c0.9,0,1.8,0,2.7,0
		c0.5,0,0.8,0.3,0.8,0.7c0,0.4-0.3,0.7-0.8,0.7C9.5,17.4,9.1,17.4,8.6,17.4z"/>
	<path class="st0" d="M9.3,11.7c-0.2,0-0.5,0-0.7,0c-0.4,0-0.7-0.3-0.7-0.7c0-0.4,0.3-0.7,0.7-0.7c0.5,0,1,0,1.5,0
		c0.4,0,0.7,0.3,0.7,0.7c0,0.4-0.3,0.7-0.7,0.7C9.8,11.7,9.6,11.7,9.3,11.7z"/>
	<path class="st0" d="M19.3,6.7c0-0.7,0-1.3,0-2c0-0.7,0.5-1,1.1-0.7c1.4,0.7,2.7,1.3,4,2c0.2,0.1,0.4,0.4,0.5,0.7
		C25,7,24.8,7.3,24.5,7.4c-1.4,0.7-2.7,1.4-4.1,2c-0.6,0.3-1.1,0-1.1-0.7C19.3,8.1,19.3,7.4,19.3,6.7z M20.7,7.7
		c0.7-0.3,1.3-0.6,1.9-1c-0.7-0.3-1.3-0.6-1.9-1C20.7,6.4,20.7,7,20.7,7.7z"/>
</g>
</svg>
